# xmcd
#
# Track frame offsets:
#       150
#       19687
#       36612
#       52164
#       63836
#       82334
#       105932
#       121248
#       137281
#       148824
#       164815
#       179316
#       193385
#       209486
#       225063
#
# Disc length: 3145 seconds
#
# Revision: 1
# Processed by: cddbd v1.5.1PL0 Copyright (c) Steve Scherf et al.
# Submitted via: MusiCat 1.1
#
DISCID=da0c470f
DTITLE=Isaac Brasil - Issac Brasil
DYEAR=1900
DGENRE=
TTITLE0=Eu, a viola e Deus
TTITLE1=Vide vida marvada
TTITLE2=Menina bonita
TTITLE3=Beira mar
TTITLE4=Cuitelinho
TTITLE5=Vaca estrela e boi fubá
TTITLE6=Guri
TTITLE7=Coração de violeiro
TTITLE8=Marica criolinha
TTITLE9=Viola quebrada
TTITLE10=Que linda morena
TTITLE11=Amargo
TTITLE12=Amor de violeiro
TTITLE13=Rancho da serra
TTITLE14=Meu caboclo
EXTD=\n\n
EXTT0=
EXTT1=
EXTT2=
EXTT3=
EXTT4=
EXTT5=
EXTT6=
EXTT7=
EXTT8=
EXTT9=
EXTT10=
EXTT11=
EXTT12=
EXTT13=
EXTT14=
PLAYORDER=
